<svg xmlns="http://www.w3.org/2000/svg" xmlns:xlink="http://www.w3.org/1999/xlink" version="1.1" width="1080" height="1080" xml:space="preserve"><rect id="backgroundrect" width="100%" height="100%" x="0" y="0" fill="none" stroke="none"/>
<desc>PortalOS</desc>
<defs>
<linearGradient id="svg_11" x1="0" y1="0.01171875"><stop stop-color="#ffffff" stop-opacity="1" offset="0"/><stop stop-color="#b56f29" stop-opacity="1" offset="1"/></linearGradient><linearGradient id="svg_12" x1="0" y1="0" x2="1.0" y2="0.0" spreadMethod="pad"><stop stop-color="#4a90d6" stop-opacity="1" offset="0"/><stop stop-color="#b56f29" stop-opacity="1" offset="1"/></linearGradient><linearGradient id="svg_15" x2="1" y2="1" spreadMethod="pad"><stop stop-color="#ff914d" stop-opacity="1" offset="0"/><stop stop-color="#8c52ff" stop-opacity="1" offset="1"/></linearGradient></defs>








<g class="currentLayer" style=""><title>Layer 1</title><g id="d4cc06cc-18e7-4a1a-9dc5-78878d17cdf8">
<rect style="stroke: none; stroke-width: 1; stroke-dasharray: none; stroke-linecap: butt; stroke-dashoffset: 0; stroke-linejoin: miter; stroke-miterlimit: 4; fill: rgb(255,255,255); fill-rule: nonzero; opacity: 1; visibility: hidden;" vector-effect="non-scaling-stroke" x="-540" y="-540" rx="0" ry="0" width="1080" height="1080" transform="matrix(1,0,0,1,540,540) " stroke-width="0" id="svg_1"/>
</g><g id="847b863d-203c-475c-9412-b5ad4f01781a">
</g><g id="eabc029f-17e5-40ad-b650-288127fc209b">
<circle style="stroke: rgb(0,0,0); stroke-width: 0; stroke-dasharray: none; stroke-linecap: butt; stroke-dashoffset: 0; stroke-linejoin: miter; stroke-miterlimit: 4; fill: rgb(57,50,81); fill-rule: nonzero; opacity: 1;" vector-effect="non-scaling-stroke" cx="0" cy="0" r="35" transform="matrix(15.1,0,0,15.1,539.47,537.68) " stroke-width="0" id="svg_2"/>
</g><g id="489e88f8-f938-43f5-a34f-90aa8f3a5fa4">
<path style="stroke: rgb(0,0,0); stroke-width: 0; stroke-dasharray: none; stroke-linecap: butt; stroke-dashoffset: 0; stroke-linejoin: miter; stroke-miterlimit: 4; fill: rgb(255,255,255); fill-rule: nonzero; opacity: 1;" vector-effect="non-scaling-stroke" d="M540.36,980.68625 C297.55666,980.68625 100.03375000000001,783.16334 100.03375000000001,540.36 C100.03375000000001,297.55666 297.55666,100.03375000000001 540.36,100.03375000000001 C783.16334,100.03375000000001 980.68625,297.55666 980.68625,540.36 C980.68625,783.16334 783.16334,980.68625 540.36,980.68625 zM540.36,120.57375 C308.88446999999996,120.57375 120.57375,308.88446999999996 120.57375,540.36 C120.57375,771.82526 308.88446999999996,960.14625 540.36,960.14625 C771.82526,960.14625 960.14625,771.82526 960.14625,540.36 C960.14625,308.88446999999996 771.82526,120.57375 540.36,120.57375 z" stroke-linecap="round" stroke-width="0" id="svg_3"/>
</g><g id="svg_4">
<path style="stroke: rgb(0,0,0); stroke-width: 0; stroke-dasharray: none; stroke-linecap: butt; stroke-dashoffset: 0; stroke-linejoin: miter; stroke-miterlimit: 4; fill: rgb(255,255,255); fill-rule: nonzero; opacity: 1;" vector-effect="non-scaling-stroke" d="M540.36,884.64625 C350.5147400000001,884.64625 196.07375000000008,730.20526 196.07375000000008,540.36 C196.07375000000008,350.5147400000001 350.5147400000001,196.07375000000008 540.36,196.07375000000008 C730.20526,196.07375000000008 884.64625,350.5147400000001 884.64625,540.36 C884.64625,730.20526 730.20526,884.64625 540.36,884.64625 zM540.36,212.13375000000008 C359.37183000000005,212.13375000000008 212.13375000000008,359.37183000000005 212.13375000000008,540.36 C212.13375000000008,721.34014 359.37183000000005,868.5862500000001 540.36,868.5862500000001 C721.34014,868.5862500000001 868.5862500000001,721.34014 868.5862500000001,540.36 C868.5862500000001,359.37183000000005 721.34014,212.13375000000008 540.36,212.13375000000008 z" stroke-linecap="round" stroke-width="0" id="svg_5"/>
</g><g id="svg_6">
<path style="stroke: rgb(0,0,0); stroke-width: 0; stroke-dasharray: none; stroke-linecap: butt; stroke-dashoffset: 0; stroke-linejoin: miter; stroke-miterlimit: 4; fill: rgb(255,255,255); fill-rule: nonzero; opacity: 1;" vector-effect="non-scaling-stroke" d="M543.05,802.4437499999999 C400.0159,802.4437499999999 283.65624999999994,686.0840999999999 283.65624999999994,543.05 C283.65624999999994,400.0159 400.0159,283.65624999999994 543.05,283.65624999999994 C686.0840999999999,283.65624999999994 802.4437499999999,400.0159 802.4437499999999,543.05 C802.4437499999999,686.0840999999999 686.0840999999999,802.4437499999999 543.05,802.4437499999999 zM543.05,295.75624999999997 C406.68904999999995,295.75624999999997 295.75624999999997,406.68904999999995 295.75624999999997,543.05 C295.75624999999997,679.4049 406.68904999999995,790.3437499999999 543.05,790.3437499999999 C679.4049,790.3437499999999 790.3437499999999,679.4049 790.3437499999999,543.05 C790.3437499999999,406.68904999999995 679.4049,295.75624999999997 543.05,295.75624999999997 z" stroke-linecap="round" stroke-width="0" id="svg_7"/>
</g><g id="svg_8">
<path style="stroke: rgb(0,0,0); stroke-width: 0; stroke-dasharray: none; stroke-linecap: butt; stroke-dashoffset: 0; stroke-linejoin: miter; stroke-miterlimit: 4; fill: rgb(255,255,255); fill-rule: nonzero; opacity: 1;" vector-effect="non-scaling-stroke" d="M536.79,715.15 C438.43927999999994,715.15 358.42999999999995,635.1407199999999 358.42999999999995,536.79 C358.42999999999995,438.43928 438.43927999999994,358.42999999999995 536.79,358.42999999999995 C635.1407199999999,358.42999999999995 715.15,438.43927999999994 715.15,536.79 C715.15,635.1407199999999 635.1407199999999,715.15 536.79,715.15 zM536.79,366.74999999999994 C443.02775999999994,366.74999999999994 366.74999999999994,443.02775999999994 366.74999999999994,536.79 C366.74999999999994,630.54808 443.02775999999994,706.8299999999999 536.79,706.8299999999999 C630.54808,706.8299999999999 706.8299999999999,630.54808 706.8299999999999,536.79 C706.8299999999999,443.02775999999994 630.54808,366.74999999999994 536.79,366.74999999999994 z" stroke-linecap="round" stroke-width="0" id="svg_9"/>
</g><g id="2015156c-f5e5-48e8-ba5d-a76cbbbddf3e" class="selected" filter="" opacity="1" fill="url(#svg_15)" stroke="#ffffff" stroke-opacity="1" fill-opacity="1">
<circle style="stroke-width: 0; stroke-dasharray: none; stroke-linecap: butt; stroke-dashoffset: 0; stroke-linejoin: miter; stroke-miterlimit: 4; fill-rule: nonzero;" vector-effect="non-scaling-stroke" cx="0" cy="0" r="35" transform="matrix(3.81,0,0,3.81,537.68,537.68) " stroke-width="0" id="svg_10" filter="" opacity="1" fill="url(#svg_15)" fill-opacity="1" stroke="#ffffff" stroke-opacity="1"/>
</g></g></svg>
