<svg version="1.2" xmlns="http://www.w3.org/2000/svg" viewBox="0 0 500 500" width="500" height="500">
	<title>eternity</title>
	<defs>
		<linearGradient id="g1" x2="1" gradientUnits="userSpaceOnUse" gradientTransform="matrix(321,0,0,321,89,249.5)">
			<stop offset="0" stop-color="#8b00db"/>
			<stop offset="1" stop-color="#e75200"/>
		</linearGradient>
	</defs>
	<style>
		.s0 { fill: #000000 } 
		.s1 { fill: #2e1c3b } 
		.s2 { fill: url(#g1) } 
		.s3 { fill: none;stroke: #ffffff;stroke-miterlimit:100;stroke-width: 4.5 } 
		.s4 { fill: #ffffff } 
	</style>
	<path id="Layer 3" class="s0" d=""/>
	<path id="Shape 1" class="s1" d="m250 459c-115.6 0-209-93.4-209-209 0-115.6 93.4-209 209-209 115.6 0 209 93.4 209 209 0 115.6-93.4 209-209 209z"/>
	<path id="Shape 2" class="s2" d="m249.5 410c-88.8 0-160.5-71.7-160.5-160.5 0-88.8 71.7-160.5 160.5-160.5 88.8 0 160.5 71.7 160.5 160.5 0 88.8-71.7 160.5-160.5 160.5z"/>
	<path id="Shape 3" class="s3" d="m249.5 434c-97.1 0-175.5-82.5-175.5-184.5 0-102 78.4-184.5 175.5-184.5 97.1 0 175.5 82.5 175.5 184.5 0 102-78.4 184.5-175.5 184.5zm0 0c-97.1 0-175.5-82.5-175.5-184.5 0-102 78.4-184.5 175.5-184.5 97.1 0 175.5 82.5 175.5 184.5 0 102-78.4 184.5-175.5 184.5zm0 0c-97.1 0-175.5-82.5-175.5-184.5 0-102 78.4-184.5 175.5-184.5 97.1 0 175.5 82.5 175.5 184.5 0 102-78.4 184.5-175.5 184.5z"/>
	<path id="Shape 4" class="s3" d="m250 445c-107.8 0-195-87.2-195-195 0-107.8 87.2-195 195-195 107.8 0 195 87.2 195 195 0 107.8-87.2 195-195 195z"/>
	<path id="PortalOS" class="s4" aria-label="PortalOS"  d="m132.4 245.2h-9.1v15.8h-4.6v-38.5h13.7q3 0 5.2 0.9 2.2 0.8 3.6 2.2 1.5 1.5 2.2 3.4 0.8 1.9 0.8 3.9v1.7q0 2.1-0.8 4-0.7 1.9-2.2 3.4-1.5 1.5-3.7 2.3-2.2 0.9-5.1 0.9zm-9.1-18.4v14.1h8.6q7.7 0 7.7-6.6v-1q0-2.9-2-4.7-1.8-1.8-5.7-1.8zm54.9 20.2v0.7q0 3.4-1.2 6-1.1 2.6-3 4.4-1.8 1.8-4.4 2.7-2.4 1-5.1 1-2.8 0-5.3-1-2.4-0.9-4.3-2.7-1.9-1.8-3-4.4-1.1-2.6-1.1-6v-0.7q0-3.3 1.1-5.9 1.1-2.7 3-4.5 1.9-1.8 4.4-2.7 2.5-1 5.2-1 2.7 0 5.1 1 2.5 0.9 4.4 2.7 1.9 1.8 3 4.5 1.2 2.6 1.2 5.9zm-13.7 10.7q1.9 0 3.6-0.7 1.7-0.7 3-2 1.2-1.3 1.9-3.1 0.8-1.9 0.8-4.2v-0.7q0-2.2-0.8-4-0.7-1.9-1.9-3.2-1.3-1.3-3-2-1.7-0.8-3.6-0.8-2 0-3.7 0.8-1.7 0.7-2.9 2-1.3 1.3-2 3.2-0.7 1.8-0.7 4v0.7q0 2.3 0.7 4.2 0.7 1.8 2 3.1 1.2 1.3 2.9 2 1.7 0.7 3.7 0.7zm20-20v-4h9.9v3.7h0.7q1.1-2.3 3-3.3 1.9-1.2 4.4-1.2 4.1 0 6.6 2.7 2.6 2.7 2.7 7.9l-4.5 0.7q0-3.8-1.8-5.5-1.8-1.7-4.5-1.7-1.7 0-2.9 0.7-1.2 0.6-2.1 1.8-0.8 1.2-1.2 2.7-0.4 1.5-0.4 3.3v11.5h7v4h-17.5v-4h6.3v-19.3zm34.2 0v-4h8.6v-11.2h4.3v11.2h10.6v4h-10.6v17.7q0 1.6 1.5 1.6h7.7v4h-9.3q-1.8 0-3-1.2-1.2-1.2-1.2-3.1v-19zm54.4 19v-0.3h-0.7q-1.3 2.7-3.6 4-2.4 1.4-4.9 1.4-2.7 0-5-0.9-2.4-0.9-4.1-2.7-1.7-1.8-2.7-4.4-1-2.6-1-6v-0.9q0-3.3 1-5.9 1-2.6 2.7-4.4 1.7-1.8 4.1-2.7 2.3-0.9 4.8-0.9 2.9 0 5.1 1.2 2.3 1.2 3.6 3.8h0.7v-4.3h4.3v21.7q0 1.6 1.5 1.6h1.3v4h-2.9q-1.8 0-3-1.2-1.2-1.2-1.2-3.1zm-8.8 1q1.9 0 3.5-0.7 1.7-0.7 2.8-2 1.2-1.4 1.8-3.2 0.7-1.9 0.7-4.1v-0.7q0-2.2-0.7-4-0.6-1.9-1.8-3.2-1.2-1.3-2.8-2-1.6-0.8-3.5-0.8-1.9 0-3.5 0.7-1.6 0.8-2.8 2.1-1.2 1.2-1.8 3.1-0.7 1.8-0.7 4v0.9q0 4.7 2.4 7.3 2.5 2.6 6.4 2.6zm22.7 3.3v-4h9.9v-30.5h-9.6v-4h13.8v34.5h9.9v4zm32.2-15v-8.5q0-7.5 3.6-11.6 3.6-4.2 10-4.2 6.3 0 9.9 4.2 3.6 4.1 3.6 11.6v8.5q0 7.7-3.6 11.8-3.6 4-9.9 4-6.4 0-10-4-3.6-4.1-3.6-11.8zm13.6 11.5q4.4 0 6.6-3 2.3-3.1 2.3-8.8v-7.9q0-5.3-2.3-8.5-2.2-3.3-6.6-3.3-4.5 0-6.8 3.3-2.2 3.2-2.2 8.5v7.9q0 5.7 2.2 8.8 2.3 3 6.8 3zm42.7-21.9v-2q0-1.9-0.8-3.3-0.7-1.4-2-2.4-1.2-0.9-2.9-1.4-1.6-0.5-3.4-0.5-1.6 0-3.1 0.5-1.4 0.3-2.6 1.1-1.1 0.8-1.7 1.9-0.7 1.1-0.7 2.6v0.4q0 1.6 0.7 2.7 0.6 1.1 1.9 1.9 1.3 0.8 3.3 1.4 1.9 0.4 4.5 0.8 6 1 8.9 3.6 2.8 2.6 2.8 7v0.7q0 2.4-0.8 4.5-0.9 2-2.6 3.5-1.6 1.5-4.1 2.3-2.5 0.9-5.7 0.9-3.7 0-6.6-1.1-2.8-1.1-4.7-2.9-1.9-2-2.9-4.5-0.9-2.6-0.9-5.6v-1.7h4.6v1.4q0 5 2.7 7.6 2.8 2.5 7.8 2.5 4.3 0 6.4-1.9 2.2-1.9 2.2-5v-0.4q0-3-2.2-4.6-2.2-1.6-7.2-2.3-3-0.4-5.3-1.2-2.3-0.8-4-2.1-1.6-1.3-2.5-3.1-0.9-1.8-0.9-4.3v-0.6q0-2.3 0.9-4.2 1-1.8 2.6-3.2 1.7-1.4 4-2.1 2.4-0.8 5.2-0.8 3.3 0 5.8 1 2.6 0.9 4.3 2.5 1.8 1.5 2.7 3.7 0.9 2.1 0.9 4.4v2.3z"/>
</svg>